# xmcd
# 
# Track frame offsets:
#     187
#     16442
#     36374
#     55264
#     72654
#     95254
#     115459
#     135132
#     159592
#     175644
#     188397
# 
# Disc length: 2797
# 
# Revision: 2
# Processed by: cddbd v1.5.2PL0 Copyright (c) Steve Scherf et al.
# Submitted via: fre:ac v1.0.17
# 
DISCID=8a0aeb0b
DTITLE=ZEPPET STORE - BRIDGE
DYEAR=1999
DGENRE=Rock
TTITLE0=SPIRAL
TTITLE1=THE GAME
TTITLE2=SUPERSTITION(granapa talked version)
TTITLE3=LOOP(merry-go-round version)
TTITLE4=CALL
TTITLE5=ALWAYS WANNA BE THERE
TTITLE6=CROSS
TTITLE7=ROSE(change your eorld version)
TTITLE8=PRIDE ONE(rubble version)
TTITLE9=ALL MY LIFE
TTITLE10=THANK YOU
EXTD=
EXTT0=
EXTT1=
EXTT2=
EXTT3=
EXTT4=
EXTT5=
EXTT6=
EXTT7=
EXTT8=
EXTT9=
EXTT10=
PLAYORDER=
